HIERARCHY
ROOT Hips
{
	OFFSET -3.958830 18.904000 13.208200
	CHANNELS 6 Xposition Yposition Zposition Zrotation Yrotation Xrotation 
	JOINT LHipJoint
	{
		OFFSET 0.000000 0.000000 0.000000
		CHANNELS 3 Zrotation Yrotation Xrotation
		JOINT LeftUpLeg
		{
			OFFSET 1.800000 -1.400000 0.085000
			CHANNELS 3 Zrotation Yrotation Xrotation
			JOINT LeftLeg
			{
				OFFSET 2.215000 -6.000000 0.000000
				CHANNELS 3 Zrotation Yrotation Xrotation
				JOINT LeftFoot
				{
					OFFSET 2.500000 -6.900000 0.000000
					CHANNELS 3 Zrotation Yrotation Xrotation
					JOINT LeftToeBase
					{
						OFFSET 0.200000 -0.500000 1.950000
						CHANNELS 3 Zrotation Yrotation Xrotation
						End Site
						{
							OFFSET 0.000000 0.000000 0.000000
						}
					}
				}
			}
		}
	}
	JOINT RHipJoint
	{
		OFFSET 0.000000 0.000000 0.000000
		CHANNELS 3 Zrotation Yrotation Xrotation
		JOINT RightUpLeg
		{
			OFFSET -1.800000 -1.400000 0.085000
			CHANNELS 3 Zrotation Yrotation Xrotation
			JOINT RightLeg
			{
				OFFSET -2.215000 -6.000000 0.000000
				CHANNELS 3 Zrotation Yrotation Xrotation
				JOINT RightFoot
				{
					OFFSET -2.500000 -6.900000 0.000000
					CHANNELS 3 Zrotation Yrotation Xrotation
					JOINT RightToeBase
					{
						OFFSET -0.200000 -0.500000 1.950000
						CHANNELS 3 Zrotation Yrotation Xrotation
						End Site
						{
							OFFSET 0.000000 0.000000 0.000000
						}
					}
				}
			}
		}
	}
	JOINT LowerBack
	{
		OFFSET 0.000000 0.000000 0.000000
		CHANNELS 3 Zrotation Yrotation Xrotation
		JOINT Spine
		{
			OFFSET -0.087000 1.940000 -0.288900
			CHANNELS 3 Zrotation Yrotation Xrotation
			JOINT Spine1
			{
				OFFSET 0.000000 1.950000 0.060000
				CHANNELS 3 Zrotation Yrotation Xrotation
				JOINT Neck
				{
					OFFSET 0.000000 0.000000 0.000000
					CHANNELS 3 Zrotation Yrotation Xrotation
					JOINT Neck1
					{
						OFFSET 0.000000 1.600000 0.340000
						CHANNELS 3 Zrotation Yrotation Xrotation
						JOINT Head
						{
							OFFSET 0.000000 1.667000 -0.240000
							CHANNELS 3 Zrotation Yrotation Xrotation
							End Site
							{
								OFFSET 0.000000 0.000000 0.000000
							}
						}
					}
				}
				JOINT LeftShoulder
				{
					OFFSET 0.000000 0.000000 0.000000
					CHANNELS 3 Zrotation Yrotation Xrotation
					JOINT LeftArm
					{
						OFFSET 2.700000 1.550000 -0.730000
						CHANNELS 3 Zrotation Yrotation Xrotation
						JOINT LeftForeArm
						{
							OFFSET 5.450000 0.000000 0.000000
							CHANNELS 3 Zrotation Yrotation Xrotation
							JOINT LeftHand
							{
								OFFSET 3.450000 0.000000 0.000000
								CHANNELS 3 Zrotation Yrotation Xrotation
								JOINT LeftHandIndex1
								{
									OFFSET 0.750000 0.000000 0.000000
									CHANNELS 3 Zrotation Yrotation Xrotation
									End Site
									{
										OFFSET 0.000000 0.000000 0.000000
									}
								}
							}
						}
					}
				}
				JOINT RightShoulder
				{
					OFFSET 0.000000 0.000000 0.000000
					CHANNELS 3 Zrotation Yrotation Xrotation
					JOINT RightArm
					{
						OFFSET -2.700000 1.550000 -0.730000
						CHANNELS 3 Zrotation Yrotation Xrotation
						JOINT RightForeArm
						{
							OFFSET -5.450000 0.000000 0.000000
							CHANNELS 3 Zrotation Yrotation Xrotation
							JOINT RightHand
							{
								OFFSET -3.450000 0.000000 0.000000
								CHANNELS 3 Zrotation Yrotation Xrotation
								JOINT RightHandIndex1
								{
									OFFSET -0.750000 0.000000 0.000000
									CHANNELS 3 Zrotation Yrotation Xrotation
									End Site
									{
										OFFSET 0.000000 0.000000 0.000000
									}
								}
							}
						}
					}
				}
			}
		}
	}
}
MOTION
Frames: 13
Frame Time: 0.016667
5.134490 16.255920 -5.486430 4.985315 63.435284 -9.778030 -15.627609 11.470416 4.369455 12.019821 -5.975820 -3.678025 -31.455929 31.343598 50.567595 2.234038 13.590503 -0.091097 0.636230 0.705460 0.385880 17.883610 -10.871880 2.912825 4.455678 3.710607 -16.633895 4.961351 -5.404705 26.192841 -0.442441 -3.676094 2.760075 0.381650 -0.329200 0.068650 -4.823612 1.531893 -9.106507 13.364411 -0.635257 16.160737 -2.328792 0.995483 24.514260 0.995058 6.849576 -27.129388 14.700541 -22.197499 32.310878 7.140620 -19.126750 -21.728670 -0.262027 -39.577051 10.039227 -0.972237 -14.785171 -2.841156 10.289406 16.152160 -0.363760 -4.451378 2.653728 0.260040 -0.381070 0.315620 0.054500 -3.431616 41.547765 17.823932 30.022907 35.322680 8.642218 -8.473304 -1.854318 0.885660 3.023854 -1.361701 0.198110 0.055500 -0.184400 0.063360 
5.162570 16.239240 -5.473330 5.408898 62.031189 -9.279169 -15.589680 11.272875 4.407478 12.858574 -5.481034 -4.573520 -33.701540 32.805011 49.784612 2.288549 13.732681 -0.116091 0.629790 0.698420 0.371630 17.949479 -10.880734 2.901895 4.631610 4.086016 -17.092543 4.445630 -5.338924 27.457073 -0.448791 -3.797013 2.726307 0.384590 -0.307880 0.063520 -4.974972 1.826393 -9.156176 14.058583 -0.315675 15.914567 -2.912570 1.695908 24.796958 1.033447 6.500897 -26.930460 14.153159 -21.890584 31.869137 6.942860 -19.037670 -21.080530 0.143501 -38.810282 10.447312 -1.737906 -13.800581 -2.626628 10.877551 14.927910 -0.386994 -4.410049 2.702063 0.245240 -0.365010 0.295250 0.064260 -3.732735 41.342019 17.974758 30.938560 36.309106 8.264106 -9.786738 -1.894305 0.721384 3.014233 -1.439519 0.188890 0.062680 -0.181670 0.067180 
5.205520 16.204090 -5.453750 5.846885 61.360753 -8.956054 -15.559666 11.068592 4.545964 14.326645 -5.074371 -6.966536 -35.837704 35.023295 50.221216 2.443204 14.082696 -0.169224 0.569860 0.636760 0.295800 18.002019 -10.820928 2.880340 4.419458 4.607161 -17.692512 4.259441 -5.451217 29.378157 -0.445568 -4.025033 2.668704 0.346760 -0.247920 0.050010 -5.067178 1.961523 -9.286877 14.747396 -0.294223 16.270589 -3.503128 2.352695 25.212409 0.867973 5.648859 -27.220391 12.573837 -21.772284 31.627776 7.725400 -20.005100 -19.483980 1.459471 -37.314862 10.931383 -3.392852 -11.986967 -2.259038 12.318151 12.238951 -0.381754 -4.318908 2.808296 0.197600 -0.340320 0.243610 0.081680 -4.606642 41.133772 18.435681 29.062807 37.956689 7.508758 -10.612059 -0.145222 0.390716 3.020821 -1.462067 0.180050 0.065430 -0.162770 0.102700 
5.249830 16.176830 -5.443590 6.071419 61.201304 -9.255235 -15.553228 10.934365 4.729748 16.052384 -4.453726 -9.796980 -37.757704 37.286777 50.771841 2.557560 14.399503 -0.233460 0.534650 0.593790 0.247530 18.023552 -10.711045 2.854854 3.923436 5.203876 -17.972603 4.272364 -5.687365 31.572737 -0.475357 -4.311182 2.592757 0.318070 -0.217900 0.036320 -5.049487 1.912966 -9.429612 15.655333 -0.467048 17.417244 -4.060931 3.027429 25.316974 0.954000 4.593427 -27.510848 10.645738 -21.751329 31.623324 8.352610 -20.824460 -19.118340 1.282804 -35.219326 11.042348 -4.417112 -9.628227 -2.239694 14.727187 8.503406 -0.473725 -4.164555 2.944994 0.187900 -0.336570 0.215750 0.095330 -4.435958 40.591841 18.904284 25.633629 38.427637 4.887068 -12.437991 4.825822 -0.516935 2.903691 -1.497741 0.169440 0.072260 -0.149930 0.118550 
5.292070 16.142780 -5.426810 6.098803 61.026412 -9.514257 -15.562175 10.824688 5.022279 18.130628 -3.980224 -13.225997 -40.172033 39.743318 51.204800 2.678497 14.683812 -0.286805 0.503950 0.546760 0.238150 18.031200 -10.509226 2.846351 3.821208 5.828333 -18.329933 3.949998 -5.764933 33.563678 -0.507047 -4.517598 2.533545 0.279740 -0.218610 0.025500 -4.838640 1.637546 -9.617749 15.977282 -0.546246 18.832642 -4.271131 3.675744 24.818091 1.216623 3.606529 -28.181308 8.763790 -22.187421 32.006874 8.145620 -21.793250 -18.729220 0.610562 -33.840124 10.809676 -4.824436 -8.171847 -2.332570 16.041797 5.478927 -0.604256 -4.037016 3.015359 0.187420 -0.347230 0.210000 0.094890 -4.175157 40.865408 19.263860 22.013618 37.787358 2.889899 -12.378646 7.939947 -0.835494 2.861042 -1.452103 0.166030 0.068200 -0.152680 0.123080 
5.328500 16.111590 -5.414780 6.016598 60.802248 -9.907543 -15.573123 10.755542 5.304173 20.008487 -3.338236 -16.400577 -43.122024 41.530021 50.293452 2.736040 14.709154 -0.287381 0.483000 0.526620 0.234620 18.038767 -10.292197 2.867686 4.221148 6.452416 -18.555634 3.185152 -5.657501 35.552265 -0.549913 -4.694970 2.484866 0.252370 -0.232840 0.012040 -4.630152 1.282267 -9.823532 16.158862 -0.960694 20.380285 -4.927271 4.066834 23.985013 1.661327 2.960249 -28.754751 7.330364 -22.227787 33.039354 8.136870 -22.222900 -18.862930 -0.018913 -32.749190 10.740786 -5.072132 -6.632529 -2.395194 16.766092 3.058820 -0.682414 -3.926108 3.060686 0.192270 -0.363540 0.219860 0.088270 -4.417156 41.107474 19.464874 18.685930 39.231529 0.716943 -13.649573 9.666302 -1.284609 2.899393 -1.424040 0.170130 0.066780 -0.157770 0.126220 
5.368460 16.080940 -5.395930 6.334820 60.809036 -9.845016 -15.594168 10.618788 5.612152 21.995263 -2.900795 -19.324590 -46.579291 44.100167 49.933206 2.785757 14.814353 -0.308960 0.477560 0.517630 0.249850 18.043888 -10.081537 2.821976 2.723716 6.911101 -18.616103 5.907227 -6.941611 36.655974 -0.620732 -5.045426 2.368946 0.245310 -0.244650 -0.004520 -4.370065 1.018463 -9.981457 15.514698 -0.893505 21.528941 -4.749080 4.336917 22.854962 1.952628 2.718343 -28.707449 6.774748 -22.136489 33.734038 8.216150 -22.121240 -19.430260 -0.548725 -31.979091 10.727611 -5.381860 -5.608605 -2.445115 17.404211 0.102767 -0.845390 -3.800500 3.089055 0.217360 -0.378350 0.231830 0.079710 -4.413662 41.023217 18.816608 16.603007 39.489077 -0.715344 -13.970806 11.275461 -1.513234 2.906175 -1.366361 0.156260 0.084190 -0.160740 0.113520 
5.413850 16.048920 -5.377390 6.087897 61.685213 -9.588500 -15.623455 10.368571 5.935896 24.080073 -2.532736 -23.106732 -49.969091 46.518689 49.533117 2.853276 14.887708 -0.294522 0.420750 0.440020 0.225370 18.076256 -9.843859 2.761664 1.542796 7.419892 -19.569929 7.554089 -7.967468 38.061599 -0.655978 -5.397438 2.258955 0.195730 -0.223890 -0.006380 -4.219672 0.918721 -10.097107 15.338829 -0.775766 21.754379 -4.313187 4.522399 20.819444 1.595362 2.652834 -28.206158 6.460446 -22.727900 33.343602 7.573370 -22.784160 -17.861620 -2.277439 -31.832148 10.457981 -5.120558 -5.472219 -2.893327 18.478824 -2.900287 -1.099906 -3.720012 3.122655 0.203690 -0.358330 0.205590 0.069910 -2.111451 40.267005 18.495102 15.911116 37.686004 -4.866723 -15.335835 17.939034 -2.635891 2.628817 -1.450769 0.142780 0.073280 -0.144180 0.111740 
5.452630 16.029800 -5.351720 7.130898 62.020432 -8.375254 -15.656106 10.215126 6.175526 26.022423 -1.589620 -25.827268 -54.742183 49.021897 47.666792 2.858097 14.693078 -0.232316 0.407300 0.422090 0.226310 18.089433 -9.649089 2.740834 -0.028670 8.010937 -20.439503 9.281293 -9.019286 39.471439 -0.716907 -5.778110 2.127483 0.181090 -0.238080 -0.010780 -4.005190 0.779618 -10.205957 14.263352 -0.181872 22.135742 -3.702066 5.001995 18.933159 1.449827 2.544833 -27.702652 6.018227 -23.092002 33.592264 6.829860 -23.079090 -17.356710 -3.976555 -31.489060 10.176982 -3.665863 -5.745153 -2.666203 17.194591 -4.872157 -1.059083 -3.654312 3.083104 0.205820 -0.360880 0.205600 0.061230 -0.043234 39.835350 17.917055 14.930649 36.857139 -6.244254 -15.224507 19.973341 -2.837348 2.575588 -1.439799 0.141760 0.061400 -0.144360 0.104540 
5.487550 16.013070 -5.322380 7.699602 62.076102 -7.282859 -15.689785 9.993805 6.357118 27.811312 -0.466030 -28.640643 -59.075157 51.102753 45.741457 2.823946 14.451062 -0.153671 0.403730 0.415560 0.257430 18.129326 -9.506315 2.723302 0.130284 8.549353 -21.327377 8.710491 -9.021871 40.893084 -0.750121 -5.908017 2.083332 0.181500 -0.252710 -0.023310 -3.888067 0.924168 -10.249713 13.325283 0.905857 21.955668 -2.903490 5.666341 16.093333 1.126377 3.323856 -26.191682 7.166767 -23.902207 33.560662 5.789280 -23.009950 -17.125130 -5.674015 -31.159902 10.037868 -2.293406 -6.500968 -2.343047 15.456392 -7.360841 -0.955931 -3.573599 2.989264 0.224260 -0.362610 0.219260 0.051450 2.138843 38.189030 16.620547 16.138939 36.463209 -7.134408 -14.910729 23.909574 -3.271574 2.442226 -1.424561 0.123500 0.078310 -0.153790 0.085060 
5.518030 16.006130 -5.299930 8.087427 61.419652 -7.070860 -15.709686 9.894753 6.457155 29.248779 0.663746 -30.074238 -62.277817 52.459568 44.089587 2.770117 14.193449 -0.096365 0.425860 0.438500 0.293570 18.164431 -9.422155 2.735195 1.724881 9.023869 -21.510569 5.774079 -7.957138 42.890937 -0.782033 -5.913210 2.072763 0.194520 -0.282200 -0.022760 -3.827589 0.977016 -10.300812 12.954330 1.296338 22.274900 -3.048367 6.130474 14.994451 1.341651 3.695199 -25.518609 7.601238 -24.038926 34.212658 5.615510 -22.725550 -17.916310 -6.006561 -31.016347 10.091881 -2.173693 -6.950894 -2.166144 15.100544 -7.205702 -0.903214 -3.557048 2.965886 0.249540 -0.380330 0.245580 0.039360 2.036949 37.793397 15.800625 16.161991 37.030443 -9.313130 -15.509164 28.409875 -4.076139 2.315544 -1.434796 0.125090 0.081020 -0.162470 0.069200 
5.544540 16.007970 -5.283490 8.371574 60.477624 -7.212315 -15.712810 9.837022 6.492694 30.256294 1.529271 -30.645842 -64.419654 53.001521 42.649925 2.703831 14.010676 -0.058289 0.426780 0.434090 0.289540 18.192992 -9.414651 2.742628 3.022425 9.215787 -21.208321 3.236295 -6.898717 44.144912 -0.790340 -5.914178 2.067786 0.206000 -0.270040 -0.019180 -3.858872 1.068396 -10.350678 12.910442 1.338330 22.642165 -3.502054 6.336768 15.212435 1.586270 3.674980 -25.175825 7.522964 -23.551799 34.729506 6.003050 -22.454280 -18.147850 -5.766138 -31.152839 10.385619 -2.449319 -6.764618 -2.083936 15.387700 -6.683494 -0.925446 -3.574535 2.984078 0.259970 -0.375150 0.237470 0.033500 1.431815 38.106819 15.111391 15.178433 37.859074 -12.398063 -16.733853 33.037930 -5.277484 2.197760 -1.446914 0.111370 0.090510 -0.145020 0.062010 
5.563420 16.019050 -5.260950 8.369075 59.643720 -8.173123 -15.702420 9.855453 6.476499 30.613503 1.794261 -30.168015 -64.993429 52.105821 41.461980 2.666290 13.909611 -0.020711 0.441840 0.463030 0.269280 18.201626 -9.489072 2.742595 4.487179 8.953167 -19.983762 0.906792 -5.801350 44.603390 -0.795887 -5.868553 2.105464 0.236450 -0.224750 -0.031700 -3.942850 1.127917 -10.405474 13.073000 0.972562 23.157354 -4.158950 6.155680 16.814826 2.125851 3.231396 -25.248149 6.844766 -22.293934 35.719564 6.935070 -22.039770 -18.197220 -3.946041 -31.602053 10.987734 -3.967430 -6.410224 -1.999405 16.075958 -5.232619 -0.926315 -3.604522 3.024600 0.248520 -0.359870 0.220340 0.063580 -1.118556 39.281207 13.917757 13.042129 38.693834 -14.565363 -16.926576 35.654626 -5.823008 2.197712 -1.426029 0.096170 0.131600 -0.149140 0.081050 
